PathFileType	4	(X/Y/Z)	Patient5_TMGait_0pt45_1_left_05.trc.trc
DataRate	CameraRate	NumFrames	NumMarkers	Units	OrigDataRate	OrigDataStartFrame	OrigNumFrames
57.851239669421	57.851239669421	4	32	mm	57.851239669421	106	       141
Frame#	Time	R.ASIS			L.ASIS			Chest			R.Shoulder			Neck			L.Shoulder			L.Elbow			L.Wrist			R.Elbow			R.Wrist			L.Thigh.Superior			L.Thigh.Lateral			L.Thigh.Inferior			L.Patella			L.Shank.Superior			L.Shank.Lateral			L.Shank.Inferior			L.Heel			L.Midfoot.Lateral			L.Midfoot.Superior			L.Toe			R.Thigh.Superior			R.Thigh.Lateral			R.Thigh.Inferior			R.Patella			R.Shank.Superior			R.Shank.Lateral			R.Shank.Inferior			R.Heel			R.Midfoot.Lateral			R.Midfoot.Superior			R.Toe			
		X1	Y1	Z1	X2	Y2	Z2	X3	Y3	Z3	X4	Y4	Z4	X5	Y5	Z5	X6	Y6	Z6	X7	Y7	Z7	X8	Y8	Z8	X9	Y9	Z9	X10	Y10	Z10	X11	Y11	Z11	X12	Y12	Z12	X13	Y13	Z13	X14	Y14	Z14	X15	Y15	Z15	X16	Y16	Z16	X17	Y17	Z17	X18	Y18	Z18	X19	Y19	Z19	X20	Y20	Z20	X21	Y21	Z21	X22	Y22	Z22	X23	Y23	Z23	X24	Y24	Z24	X25	Y25	Z25	X26	Y26	Z26	X27	Y27	Z27	X28	Y28	Z28	X29	Y29	Z29	X30	Y30	Z30	X31	Y31	Z31	X32	Y32	Z32	

106	8.615000000000	976.142378526575	970.750313100265	579.721586480185	928.003418509114	958.549202088169	343.843422072773	1014.577606590820	1426.943920345019	488.145560217672	945.537534620451	1477.044693243893	673.315252374705	888.811308849722	1549.795257485999	500.527354143503	917.425480241504	1508.195350494857	309.736122555223	782.147860927997	1209.966329296146	184.469891134027	862.459328192210	937.259838841463	134.583293812356	904.893204870853	1152.303950860657	816.642583605264	1114.993693537504	976.421492829795	722.339002150131	990.729392280977	762.894055412551	293.004279915898	931.475259011332	682.220013022652	252.822593929757	1031.666379436061	639.555391140411	287.178367840067	1043.782526765322	489.426517627270	272.041630679902	941.209448451361	411.394663562969	307.702542637224	836.132309666298	408.429271011161	243.063212429596	836.337388309296	344.748431549626	330.540633113823	583.983931876052	281.717162133756	353.482719317738	615.632335184329	192.674595084189	295.982751728347	730.154966058906	159.303789605810	327.993840333035	765.074391035236	53.173688149674	337.243684409770	989.439328282976	738.494021878192	592.877261931461	905.586445750374	658.458985655957	647.330681766509	978.693514603773	609.764143029547	564.436356938524	978.903987147969	512.327126396813	586.753657943371	934.288592083316	415.995872842441	545.953014979163	869.253426706740	343.036607124204	627.123100721671	917.887265861470	277.911825165340	536.388218385822	795.615683429329	53.177257447339	491.619487818407	873.633555020832	24.371716790830	565.461196072641	979.568030336964	87.983490873015	541.085159781134	1083.457958270766	43.628479900081	541.586238391819	
107	8.632285714286	976.619042651842	971.063409566185	581.785295793270	927.671896228841	959.847602258225	345.689746775726	1015.106921426459	1427.380215637017	488.465929616066	948.040333373487	1476.834211788421	674.346077253176	889.740362400826	1550.153933514250	502.351023528391	916.010799396030	1509.365449963992	311.425449890664	780.252745290247	1210.263592539671	188.110539223104	861.305235468834	937.664887853871	138.583889992076	910.854756278823	1152.253533226627	818.669057246482	1120.327503590009	974.903985383750	725.627748910957	994.995869774073	768.487154884102	295.530340222801	938.781853897841	686.343979237823	254.580604661690	1040.503192745459	647.097364729489	289.409558086742	1057.441390376448	496.698508393420	273.265544168854	955.974595915599	416.332605263893	308.554283896927	850.638636580076	412.168956273894	244.798713297991	852.281293173573	347.936823978239	331.680971044781	600.637601206942	277.373581229434	356.779349629971	635.582986544189	192.685559897173	295.650869519049	751.353814940893	162.981006662931	326.128992431175	790.581538670298	57.769280344334	330.741322663590	986.405728259050	737.453176772139	593.327781157731	901.037713268475	658.668156059292	648.025522218928	972.486930896409	608.766219496658	564.692289552104	971.218909969273	511.870643904606	586.815444496124	926.047437247296	416.398743719880	546.184982633687	861.538663004933	343.611472957379	627.570024933745	909.982795999253	278.407149021683	536.636876132225	787.685986529178	53.338239974979	491.823973567328	865.762535255074	24.443359988537	565.554599569689	971.720759526219	88.022846517585	541.148967726292	1075.564941022001	43.640135551193	541.617744612170	
108	8.649571428571	976.890020148105	971.188121204208	583.516730163747	927.414476999450	961.308216512919	347.383771710390	1015.704583700320	1427.991167468046	488.589825505950	950.454419312851	1476.995718193746	675.081967573420	890.683345617290	1550.686402282452	503.793530655503	914.826311651108	1510.541042496644	312.813064739038	778.672163561425	1210.728813652067	191.134930524192	860.764528831187	938.272444539099	142.275156123825	916.137492665703	1152.688526326946	820.415368213037	1125.018930521193	974.004985728526	728.359022311389	998.740117804365	773.962736621109	298.350859124136	945.444902207801	690.619921402671	256.466635226902	1048.199813982486	654.476406120720	292.201033930156	1069.875713818183	504.177279544995	275.078065033507	970.330052081422	420.907876461973	309.933622512393	864.651330265738	414.496973547964	247.233042113634	868.558065919749	349.577170664240	333.278380527240	618.727445238058	268.104987803500	360.654147816422	657.871431057398	188.696727253081	295.713806369557	775.148098080288	164.407546128135	324.429877551697	820.221592131897	61.820408626877	324.109241068637	983.066700157601	736.398700830270	593.602744187445	896.406450212171	658.804073599765	648.577916739194	966.304548666057	607.823627405254	564.880088241760	963.711869461508	511.407787808208	586.865964928259	917.968522301596	416.803822420395	546.398644548494	853.837281967200	344.197813663662	627.961310701230	902.120370117336	278.891782065894	536.902633316014	779.714204192950	53.479096832411	492.041525544835	857.881323656221	24.491410919550	565.630821551834	963.871111769441	88.067919056909	541.233400553619	1067.677209170703	43.682456599597	541.626612040342	
109	8.666857142857	976.914547968030	971.035081442421	584.855190704022	927.148757359897	962.752082947625	348.846956843154	1016.468278674680	1428.602897048714	488.613908915999	952.851811563189	1477.404557824310	675.629331399700	891.703992924447	1551.267331771455	504.924838024262	914.003325347570	1511.536141497971	313.944825157064	777.395329610774	1211.255875798374	193.546889609345	860.794682247920	938.993446772442	145.566186232012	920.623624445961	1153.498603156972	822.008938099682	1129.045961300498	973.872544957714	730.459199746896	1001.929466032690	779.087926314911	301.244297397862	951.441850524177	694.788934230290	258.306769729437	1054.761558645353	661.400865609740	295.370891578482	1081.092339514848	511.619343322386	277.414513224241	984.339201049767	424.977489818609	311.772914241315	878.360152012207	415.228753821249	250.140659232075	885.280055492921	349.623012329251	335.191881449310	638.716888031313	254.568767462712	364.721230015867	682.472177953089	181.067221043502	296.098800249185	801.262364766963	163.628211317606	322.973740428794	853.180112070632	64.996153764721	317.780535312978	979.486605277841	735.327994374354	593.703939637948	891.777453354996	658.853984032921	648.996831951822	960.268039758634	606.926133982275	564.985022200736	956.506848405481	510.891974832098	586.894017766958	910.176389613739	417.154364932159	546.587128292060	846.242640379671	344.745224772256	628.288033434429	894.365956572327	279.312350093964	537.176651051282	771.713235586469	53.580132768543	492.241544356169	849.993615900324	24.515409468055	565.690124170262	956.018632975018	88.103438938026	541.326580413884	1059.802429137338	43.745966638108	541.608433401984	
